<?xml version="1.0" standalone="no"?>
<!DOCTYPE svg PUBLIC "-//W3C//DTD SVG 20010904//EN" "http://www.w3.org/TR/2001/REC-SVG-20010904/DTD/svg10.dtd">
<!-- Created using Karbon, part of Calligra: http://www.calligra.org/karbon -->
<svg xmlns="http://www.w3.org/2000/svg" xmlns:xlink="http://www.w3.org/1999/xlink" width="256pt" height="256pt">
<defs/>
<g id="g6">
  <path id="path8" transform="matrix(0.125 0 0 -0.125 46.4114 304.846)" fill="#ffffff" d="M129.709 2242.77C69.7087 2212.77 27.7087 2160.77 9.7087 2096.77C0.708699 2064.77 -1.2913 1812.77 0.708699 1108.77C3.7087 60.7703 -1.2913 139.77 69.7087 69.7703C139.709 -0.229741 85.7087 3.77026 888.709 0.770259C1543.71 -1.22974 1617.71 -0.229741 1657.71 14.7703C1715.71 36.7703 1767.71 84.7703 1792.71 138.77C1813.71 182.77 1813.71 198.77 1816.71 880.77L1819.71 1577.77L1657.71 1765.77C1567.71 1868.77 1434.71 2024.77 1359.71 2111.77L1224.71 2268.77L703.709 2268.77L182.709 2268.77ZM1220.71 1956.77C1223.71 1746.77 1223.71 1742.77 1250.71 1698.77C1306.71 1602.77 1369.71 1578.77 1563.71 1578.77L1706.71 1578.77L1713.71 1506.77C1716.71 1466.77 1718.71 1156.77 1716.71 818.77C1713.71 224.77 1712.71 202.77 1693.71 169.77C1682.71 151.77 1657.71 127.77 1638.71 117.77C1605.71 99.7703 1567.71 98.7703 902.709 98.7703L201.709 98.7703L167.709 121.77C94.7087 170.77 98.7087 107.77 98.7087 1130.77C98.7087 1755.77 101.709 2056.77 109.709 2075.77C122.709 2109.77 156.709 2147.77 183.709 2158.77C194.709 2163.77 431.709 2167.77 710.709 2167.77L1217.71 2168.77ZM1566.71 1687.77C1559.71 1682.77 1526.71 1678.77 1493.71 1678.77C1420.71 1678.77 1372.71 1700.77 1341.71 1747.77C1320.71 1777.77 1318.71 1793.77 1318.71 1895.77L1318.71 2009.77L1448.71 1852.77C1543.71 1738.77 1575.71 1692.77 1566.71 1687.77Z"/>
  <path id="path10" transform="matrix(0.125 0 0 -0.125 105.022 151.047)" fill="#ffffff" d="M5.82369 87.375C-5.17631 29.375 -1.17631 9.375 22.8237 3.375C34.8237 0.375 229.824 -0.625 454.824 0.375L864.824 3.375L867.824 61.375L870.824 118.375L441.824 118.375L12.8237 118.375Z"/>
  <path id="path12" transform="matrix(0.125 0 0 -0.125 105.25 181.25)" fill="#ffffff" d="M3 70C-1 43 -1 16 3 10C7 3 150 0 439 0L868 0L868 60L868 120L439 120L10 120Z"/>
  <path id="path14" transform="matrix(0.125 0 0 -0.125 105.25 212.5)" fill="#ffffff" d="M3 70C-1 43 -1 16 3 10C7 3 150 0 439 0L868 0L868 60L868 120L439 120L10 120Z"/>
  <path id="path16" transform="matrix(0.125 0 0 -0.125 105 242.5)" fill="#ffffff" d="M6 83C3 62 0 35 0 23L0 0L435 0L870 0L870 60L870 120L441 120L13 120Z"/>
 </g>
</svg>
