<?xml version="1.0" encoding="UTF-8" standalone="no"?>
<svg
   xmlns:dc="http://purl.org/dc/elements/1.1/"
   xmlns:cc="http://creativecommons.org/ns#"
   xmlns:rdf="http://www.w3.org/1999/02/22-rdf-syntax-ns#"
   xmlns:svg="http://www.w3.org/2000/svg"
   xmlns="http://www.w3.org/2000/svg"
   xmlns:sodipodi="http://sodipodi.sourceforge.net/DTD/sodipodi-0.dtd"
   xmlns:inkscape="http://www.inkscape.org/namespaces/inkscape"
   version="1.0"
   width="256.000000pt"
   height="256.000000pt"
   viewBox="0 0 256.000000 256.000000"
   preserveAspectRatio="xMidYMid meet"
   id="svg2"
   inkscape:version="0.91 r13725"
   sodipodi:docname="paper.svg">
  <defs
     id="defs20" />
  <sodipodi:namedview
     pagecolor="#ffffff"
     bordercolor="#666666"
     borderopacity="1"
     objecttolerance="10"
     gridtolerance="10"
     guidetolerance="10"
     inkscape:pageopacity="0"
     inkscape:pageshadow="2"
     inkscape:window-width="1366"
     inkscape:window-height="709"
     id="namedview18"
     showgrid="false"
     inkscape:zoom="0.7375"
     inkscape:cx="160"
     inkscape:cy="105.76271"
     inkscape:window-x="-4"
     inkscape:window-y="30"
     inkscape:window-maximized="1"
     inkscape:current-layer="svg2" />
  <metadata
     id="metadata4">
    <rdf:RDF>
      <cc:Work
         rdf:about="">
        <dc:format>image/svg+xml</dc:format>
        <dc:type
           rdf:resource="http://purl.org/dc/dcmitype/StillImage" />
      </cc:Work>
    </rdf:RDF>
  </metadata>
  <g
     class="svg-icon"
     transform="translate(0.000000,256.000000) scale(0.100000,-0.100000)"
     stroke="none"
     id="g6">
    <path
       d="M501 2364 c-60 -30 -102 -82 -120 -146 -9 -32 -11 -284 -9 -988 3 -1048 -2 -969 69 -1039 70 -70 16 -66 819 -69 655 -2 729 -1 769 14 58 22 110 70 135 124 21 44 21 60 24 742 l3 697 -162 188 c-90 103 -223 259 -298 346 l-135 157 -521 0 -521 0 -53 -26z m1091 -286 c3 -210 3 -214 30 -258 56 -96 119 -120 313 -120 l143 0 7 -72 c3 -40 5 -350 3 -688 -3 -594 -4 -616 -23 -649 -11 -18 -36 -42 -55 -52 -33 -18 -71 -19 -736 -19 l-701 0 -34 23 c-73 49 -69 -14 -69 1009 0 625 3 926 11 945 13 34 47 72 74 83 11 5 248 9 527 9 l507 1 3 -212z m346 -269 c-7 -5 -40 -9 -73 -9 -73 0 -121 22 -152 69 -21 30 -23 46 -23 148 l0 114 130 -157 c95 -114 127 -160 118 -165z"
       id="path8" />
    <path
       d="M846 1439 c-11 -58 -7 -78 17 -84 12 -3 207 -4 432 -3 l410 3 3 58 3 57 -429 0 -429 0 -7 -31z"
       id="path10" />
    <path
       d="M845 1180 c-4 -27 -4 -54 0 -60 4 -7 147 -10 436 -10 l429 0 0 60 0 60 -429 0 -429 0 -7 -50z"
       id="path12" />
    <path
       d="M845 930 c-4 -27 -4 -54 0 -60 4 -7 147 -10 436 -10 l429 0 0 60 0 60 -429 0 -429 0 -7 -50z"
       id="path14" />
    <path
       d="M846 703 c-3 -21 -6 -48 -6 -60 l0 -23 435 0 435 0 0 60 0 60 -429 0 -428 0 -7 -37z"
       id="path16" />
  </g>
</svg>
